<svg xmlns="http://www.w3.org/2000/svg" viewBox="0 0 512 512" style="height: 512px; width: 512px;"><path d="M0 0h512v512H0z" fill="#000000" opacity="0"></path><g class="" transform="translate(0,0)" style="touch-action: none;"><path fill="#4a4a4a" d="M302.87 255.5a47.37 47.37 0 1 1-47.37-47.37 47.37 47.37 0 0 1 47.37 47.37zM128.5 81.18a47.37 47.37 0 1 0 47.41 47.32 47.37 47.37 0 0 0-47.41-47.32zm253.91 0a47.37 47.37 0 1 0 47.41 47.32 47.37 47.37 0 0 0-47.32-47.32zM128.5 335.09a47.37 47.37 0 1 0 47.41 47.41 47.37 47.37 0 0 0-47.41-47.41zm253.91 0a47.37 47.37 0 1 0 47.41 47.41 47.37 47.37 0 0 0-47.32-47.41zm102"></path></g><!-- react-empty: 6 --></svg>